<svg width="118" height="14" viewBox="0 0 118 14" fill="none" xmlns="http://www.w3.org/2000/svg">
<path fill-rule="evenodd" clip-rule="evenodd" d="M27.862 6.05003C27.7431 6.06184 27.6526 6.16182 27.6526 6.28127V6.67204V7.06378C27.6526 7.18282 27.7425 7.2826 27.8609 7.29491L28.2072 7.33091C29.6416 7.48003 30.7679 8.62672 30.8914 10.0635L30.9209 10.4075C30.9313 10.5277 31.0318 10.62 31.1525 10.62H31.5605H31.9311C32.0506 10.62 32.1506 10.5294 32.1624 10.4105L32.2003 10.0277C32.3411 8.60738 33.4613 7.48191 34.8809 7.33432L35.26 7.29491C35.3784 7.2826 35.4683 7.18282 35.4683 7.06378V6.69208L35.4683 6.28127C35.4683 6.16182 35.3778 6.06184 35.2589 6.05003L34.8929 6.01368C33.4677 5.8721 32.3403 4.7447 32.1988 3.3195L32.1624 2.95354C32.1506 2.83469 32.0506 2.74414 31.9312 2.74414H31.6005H31.1524C31.0318 2.74414 30.9313 2.83642 30.9209 2.95658L30.8928 3.28348C30.7686 4.72521 29.6349 5.87391 28.1949 6.01695L27.862 6.05003ZM30.8678 6.65182C30.853 6.65939 30.853 6.68051 30.8678 6.68808C31.1909 6.85331 31.4537 7.11612 31.619 7.4392C31.6265 7.45399 31.6476 7.45399 31.6552 7.43921C31.8204 7.11612 32.0833 6.85331 32.4063 6.68807C32.4211 6.68051 32.4211 6.65939 32.4063 6.65182C32.0833 6.48659 31.8204 6.22377 31.6552 5.90069C31.6476 5.88591 31.6265 5.88591 31.619 5.90069C31.4537 6.22377 31.1909 6.48659 30.8678 6.65182Z" fill="#555555"/>
<path d="M6.2129 13.3324C9.99077 13.3324 12.4079 11.1462 12.4079 7.66974V0.626613C12.4079 0.498276 12.3039 0.394239 12.1755 0.394239H9.52486C9.39653 0.394239 9.29249 0.498276 9.29249 0.626613V7.59806C9.29249 9.53341 8.12869 10.6265 6.2129 10.6265C4.2613 10.6265 3.1154 9.53341 3.1154 7.59806V0.626613C3.1154 0.498276 3.01136 0.394239 2.88303 0.394239H0.232374C0.104037 0.394239 0 0.498276 0 0.626613V7.66974C0 11.1462 2.39922 13.3324 6.2129 13.3324Z" fill="#555555"/>
<path d="M25.6521 12.9382C25.8587 12.9382 25.9625 12.6889 25.8171 12.5422L21.5632 8.25258C21.5269 8.21591 21.5529 8.15358 21.6045 8.15358H21.859C24.4372 8.15358 25.9949 6.61246 25.9949 4.31871C25.9949 2.00704 24.2582 0.394239 21.6441 0.394239H14.3566C14.2282 0.394239 14.1242 0.498276 14.1242 0.626613V12.7058C14.1242 12.8342 14.2282 12.9382 14.3566 12.9382H17.0251C17.1535 12.9382 17.2575 12.8342 17.2575 12.7058V7.63907C17.2575 7.58619 17.3224 7.56081 17.3583 7.59965L22.2197 12.8635C22.2637 12.9111 22.3256 12.9382 22.3904 12.9382H25.6521ZM17.2575 2.99205C17.2575 2.86371 17.3615 2.75967 17.4899 2.75967H20.6057C21.9664 2.75967 22.7542 3.42271 22.7542 4.53375C22.7542 5.71647 21.9127 6.39742 20.4266 6.39742H17.4899C17.3615 6.39742 17.2575 6.29339 17.2575 6.16505V2.99205Z" fill="#555555"/>
<path d="M43.1015 5.68063C42.995 5.68063 42.9021 5.75301 42.8761 5.85627L42.4202 7.66736C42.3832 7.81411 42.4942 7.95646 42.6455 7.95646H48.9037C48.9395 7.95646 48.9668 7.98901 48.9603 8.02428C48.649 9.72031 47.261 10.6803 45.1405 10.6803C42.3295 10.6803 40.5928 9.0675 40.5928 6.7379C40.5928 4.58751 42.0967 2.75967 45.8567 2.75967C47.6604 2.75967 49.2178 3.20909 50.3466 3.82105C50.5071 3.90805 50.7089 3.79509 50.7089 3.61254V1.39182C50.7089 1.30706 50.6628 1.22881 50.5879 1.18911C49.3302 0.522317 47.6614 0.0179208 45.3375 0.0179208C40.0019 0.0179208 37.3162 3.04639 37.3162 6.68414C37.3162 10.4473 40.2705 13.3145 44.9973 13.3145C49.0795 13.3145 51.801 11.1104 51.801 7.0067V5.913C51.801 5.78466 51.697 5.68063 51.5687 5.68063H43.1015Z" fill="#555555"/>
<path d="M56.6145 10.2681C56.4862 10.2681 56.3821 10.1641 56.3821 10.0358V0.626613C56.3821 0.498277 56.2781 0.394239 56.1498 0.394239H53.4812C53.3529 0.394239 53.2488 0.498276 53.2488 0.626613V12.7058C53.2488 12.8342 53.3529 12.9382 53.4812 12.9382H63.2042C63.3325 12.9382 63.4366 12.8342 63.4366 12.7058V10.5005C63.4366 10.3722 63.3325 10.2681 63.2042 10.2681H56.6145Z" fill="#555555"/>
<path d="M70.6859 13.3324C75.1978 13.3324 77.6428 10.3577 77.6428 6.63038C77.6428 2.86719 75.1978 0 70.6859 0C66.1381 0 63.6932 2.86719 63.6932 6.63038C63.6932 10.3398 66.1381 13.3324 70.6859 13.3324ZM70.6859 10.6624C68.0897 10.6624 67.0234 8.95998 67.0234 6.6483C67.0234 4.33663 68.0897 2.67007 70.6859 2.67007C73.2462 2.67007 74.3125 4.33663 74.3125 6.6483C74.3125 8.95998 73.2462 10.6624 70.6859 10.6624Z" fill="#555555"/>
<path d="M94.5521 0.394239C94.4453 0.394239 94.3522 0.467097 94.3265 0.570817L92.1484 9.37651C92.1342 9.43422 92.0527 9.43578 92.0362 9.37865L89.4949 0.562252C89.4662 0.462754 89.3751 0.394239 89.2716 0.394239H85.9151C85.8115 0.394239 85.7204 0.462778 85.6918 0.562299L83.2049 9.19656C83.1884 9.25389 83.1066 9.25206 83.0926 9.19406L81.0204 0.572308C80.9953 0.467864 80.9018 0.394239 80.7944 0.394239H78.0564C77.904 0.394239 77.7928 0.53855 77.8318 0.68594L81.0214 12.7652C81.0483 12.8672 81.1406 12.9382 81.2461 12.9382H84.6162C84.7198 12.9382 84.811 12.8696 84.8396 12.77L87.4217 3.77655C87.4377 3.72062 87.5169 3.72041 87.5332 3.77625L90.1674 12.7711C90.1964 12.8702 90.2872 12.9382 90.3904 12.9382H94.0132C94.1182 12.9382 94.2102 12.8678 94.2375 12.7664L97.4961 0.687136C97.536 0.53946 97.4247 0.394239 97.2718 0.394239H94.5521Z" fill="#555555"/>
<path d="M99.1729 12.7058C99.1729 12.8342 99.2769 12.9382 99.4053 12.9382H102.074C102.202 12.9382 102.306 12.8342 102.306 12.7058V0.608694C102.306 0.480357 102.202 0.376319 102.074 0.376319H99.4053C99.2769 0.376319 99.1729 0.480357 99.1729 0.608693V12.7058Z" fill="#555555"/>
<path d="M114.678 0.394239C114.55 0.394239 114.446 0.498276 114.446 0.626613V9.46984C114.446 9.52855 114.369 9.55021 114.338 9.50008L108.856 0.505672C108.814 0.436467 108.738 0.394239 108.657 0.394239H104.741C104.613 0.394239 104.509 0.498276 104.509 0.626613V12.7058C104.509 12.8342 104.613 12.9382 104.741 12.9382H107.105C107.234 12.9382 107.338 12.8342 107.338 12.7058V3.64557C107.338 3.58702 107.414 3.56525 107.445 3.61509L113.124 12.8278C113.167 12.8964 113.241 12.9382 113.322 12.9382H117.024C117.153 12.9382 117.257 12.8342 117.257 12.7058V0.626613C117.257 0.498277 117.153 0.394239 117.024 0.394239H114.678Z" fill="#555555"/>
</svg>
